<svg width="1000" height="240" viewBox="0 0 1000 240" fill="none" xmlns="http://www.w3.org/2000/svg">
<path d="M150 120C150 136.569 136.569 150 120 150C112.338 150 107.532 147.182 103.171 141.91C98.2213 135.927 94.301 127.344 89.1101 115.876C85.6925 108.326 87.2154 102.858 91.2868 98.7868C96.004 94.0695 105.527 90 120 90C134.208 90 140.865 93.9031 144.329 98.0902C148.114 102.665 150 109.822 150 120Z" fill="#FFCC11"/>
<path fill-rule="evenodd" clip-rule="evenodd" d="M120 180C153.137 180 180 153.137 180 120C180 102.41 175.148 87.548 165.819 77.1976C156.65 67.0247 142.07 60 120 60C97.7164 60 80.4769 67.1703 70.0736 77.5736C59.8993 87.7479 55.5722 101.61 59.6813 117.496C64.4541 135.947 71.7284 151.761 81.6806 162.802C91.3797 173.563 103.758 180 120 180ZM160 120C160 142.091 142.091 160 120 160C98.1034 160 90.1406 142.406 80.2641 120.584L80 120C70 97.9086 87.9086 80 120 80C152.091 80 160 97.9086 160 120Z" fill="#FFCC11"/>
<path fill-rule="evenodd" clip-rule="evenodd" d="M120 210C168.385 210 200.606 170.986 210.16 118.218C214.533 94.0647 207.083 74.9615 191.397 60.3586C175.277 45.3522 149.935 34.706 118.485 29.8845C88.4682 25.2828 64.3398 33.3809 48.8604 48.8604C33.3809 64.3398 25.2828 88.4682 29.8845 118.485C34.677 149.746 45.2298 172.509 60.1104 187.39C74.8127 202.092 94.6319 210 120 210ZM120 190C158.66 190 190 158.66 190 120C190 81.3401 168.66 50 120 50C71.3401 50 40 81.3401 50 120C60 158.66 81.3401 190 120 190Z" fill="#FFCC11"/>
<path fill-rule="evenodd" clip-rule="evenodd" d="M120 240C185.619 240 228.913 186.541 238.814 120.596C248.715 54.6507 195.52 11.142 120 1.19166C44.4795 -8.75869 -8.71542 44.7004 1.18577 120.596C11.087 196.491 54.3807 240 120 240ZM120 220C175.228 220 210 175.228 220 120C230 64.7715 185.228 30 120 20C54.7715 9.99998 9.99998 54.7715 20 120C30 185.228 64.7715 220 120 220Z" fill="#FFCC11"/>
<path fill-rule="evenodd" clip-rule="evenodd" d="M357.114 60C319.529 60 292.9 82.9214 292.9 120C292.9 157.079 319.529 180 357.114 180C394.698 180 421.327 157.079 421.327 120C421.327 82.9214 394.698 60 357.114 60ZM357.114 153.034C337.9 153.034 327.956 140.562 327.956 120C327.956 99.4382 337.9 86.9663 357.114 86.9663C376.327 86.9663 386.271 99.4382 386.271 120C386.271 140.562 376.327 153.034 357.114 153.034ZM540.621 84.4382V111.067H555.284V144.101C555.284 169.213 571.97 180 590.34 180C599.441 180 608.543 177.472 616.632 172.921L617.475 148.652C613.43 150.843 607.194 152.697 601.464 152.697C594.722 152.697 588.992 149.831 588.992 141.91V111.067H616.464V84.4382H588.992V61.6854H581.913L559.498 84.4382H540.621ZM821.456 111.067V84.4382H840.333L862.749 61.6854H869.827V84.4382H897.299V111.067H869.827V141.91C869.827 149.831 875.558 152.697 882.299 152.697C888.03 152.697 894.265 150.843 898.31 148.652L897.468 172.921C889.378 177.472 880.277 180 871.176 180C852.805 180 836.119 169.213 836.119 144.101V111.067H821.456ZM973.185 178.146L967.792 151.685C964.084 172.079 950.264 180 936.107 180C919.253 180 908.466 169.045 908.466 153.202C908.466 131.461 928.522 115.787 963.579 118.652C959.534 111.742 951.275 108.708 941.837 108.708C929.702 108.708 915.882 113.427 905.938 121.011L906.781 95.7303C918.747 87.4719 934.758 82.5843 950.095 82.5843C975.882 82.5843 999.983 96.2359 999.983 130.618V178.146H973.185ZM939.646 143.09C939.646 150.674 945.376 154.382 951.275 154.382C958.354 154.382 966.275 149.157 966.275 137.191V134.6C966.275 133.42 966.275 129.711 966.107 128.7C950.601 127.689 939.646 132.472 939.646 143.09ZM721.156 131.629C721.156 160.955 741.212 180 773.572 180C789.414 180 802.223 175.449 812.841 168.876L813.684 144.944C803.74 151.517 791.605 154.719 781.493 154.719C767.504 154.719 756.381 148.483 755.032 133.989L817.729 135.337C822.279 101.966 802.392 82.5843 771.886 82.5843C742.055 82.5843 721.156 101.629 721.156 131.629ZM771.043 103.4C782.5 103.4 786.212 112.904 787.055 121.5H755.032C756.212 112.9 759.6 103.4 771.043 103.4ZM671.283 180C656.451 180 639.597 176.292 626.114 169.382L625.271 146.798C637.575 152.865 654.429 156.573 666.564 156.573C677.35 156.573 681.395 153.539 681.395 149.326C681.395 146.461 679.372 144.438 671.788 142.921L650.384 138.708C634.878 135.674 623.755 127.079 623.755 112.416C623.755 92.8652 643.305 82.5843 667.575 82.5843C682.575 82.5843 698.08 86.4607 710.889 92.8652L711.732 115.281C701.957 110.225 687.125 106.011 672.799 106.011C662.182 106.011 657.799 108.539 657.799 112.416C657.799 114.607 659.316 116.798 666.395 118.315L687.631 123.034C706.339 127.247 715.44 136.517 715.44 149.831C715.44 168.371 697.575 180 671.283 180ZM532.286 84.4382V178.146H505.489L500.264 149.326C496.725 170.056 484.421 180 466.05 180C444.477 180 431.837 166.18 431.837 138.202V84.4382H465.545V135.337C465.545 148.82 470.938 154.888 480.713 154.888C490.32 154.888 498.579 148.82 498.579 135.169V84.4382H532.286Z" fill="white"/>
</svg>
